<mxfile host="app.diagrams.net" modified="2023-11-27T12:13:39.046Z" agent="Mozilla/5.0 (X11; Ubuntu; Linux x86_64; rv:109.0) Gecko/20100101 Firefox/119.0" version="22.1.3" etag="UxWw2qmpccxRA0BL5Qer" type="github">
  <diagram name="第 1 页" id="qPbm2nj88QV2JTV5UfCi">
    <mxGraphModel>
      <root>
        <mxCell id="0" />
        <mxCell id="1" parent="0" />
      </root>
    </mxGraphModel>
  </diagram>
</mxfile>
